<?xml version="1.0" encoding="UTF-8"?>
<svg width="13px" height="13px" viewBox="0 0 13 13" version="1.1" xmlns="http://www.w3.org/2000/svg" xmlns:xlink="http://www.w3.org/1999/xlink">
    <!-- Generator: Sketch 49.3 (51167) - http://www.bohemiancoding.com/sketch -->
    <title>@2xCombined Shape</title>
    <desc>Created with Sketch.</desc>
    <defs></defs>
    <g id="Page-1" stroke="none" stroke-width="1" fill="none" fill-rule="evenodd">
        <g id="优惠券7" transform="translate(-349.000000, -358.000000)" fill="#D0D0D0">
            <g id="Group-13" transform="translate(0.000000, 333.000000)">
                <path d="M355.5,30.3577506 L360.368158,25.4895924 C360.683582,25.1741689 361.194984,25.1741689 361.510408,25.4895924 C361.825831,25.8050158 361.825831,26.3164183 361.510408,26.6318418 L356.642249,31.5 L361.510408,36.3681582 C361.825831,36.6835817 361.825831,37.1949842 361.510408,37.5104076 C361.194984,37.8258311 360.683582,37.8258311 360.368158,37.5104076 L355.5,32.6422494 L350.631842,37.5104076 C350.316418,37.8258311 349.805016,37.8258311 349.489592,37.5104076 C349.174169,37.1949842 349.174169,36.6835817 349.489592,36.3681582 L354.357751,31.5 L349.489592,26.6318418 C349.174169,26.3164183 349.174169,25.8050158 349.489592,25.4895924 C349.805016,25.1741689 350.316418,25.1741689 350.631842,25.4895924 L355.5,30.3577506 Z" id="Combined-Shape"></path>
            </g>
        </g>
    </g>
</svg>